<svg version="1.1" id="Layer_1" xmlns="http://www.w3.org/2000/svg" xmlns:xlink="http://www.w3.org/1999/xlink" x="0px" y="0px"
	 width="100%" viewBox="0 0 496 496" enable-background="new 0 0 496 496" xml:space="preserve">
<path fill="#000000" opacity="1.000000" stroke="none" 
	d="
M182.582275,124.387863 
	C205.974564,114.493042 227.651855,115.844246 247.418213,132.318115 
	C249.255203,133.849106 250.990829,135.214264 253.687729,134.269821 
	C255.695175,133.566803 257.582214,134.767410 259.454376,135.385773 
	C285.050964,143.840057 310.615509,152.392715 336.255463,160.713074 
	C340.860291,162.207367 342.422760,164.762024 342.390564,169.495789 
	C342.220642,194.494202 342.372375,219.494675 342.249451,244.493637 
	C342.230652,248.320572 343.173309,251.507324 345.138489,254.790833 
	C359.248352,278.365875 347.635254,306.996399 320.961548,313.540741 
	C307.561890,316.828339 295.090332,313.845825 285.022217,303.901062 
	C282.267548,301.180115 280.068085,300.407104 277.035370,302.896851 
	C265.290192,312.539307 253.143616,312.167267 239.121658,307.069733 
	C217.259537,299.121979 194.658325,293.207886 172.372437,286.424988 
	C165.275360,284.264954 164.901840,283.777557 164.892670,276.248230 
	C164.869751,257.415222 164.848114,238.582138 164.890671,219.749237 
	C164.897232,216.842575 164.430695,214.301071 162.647644,211.808807 
	C140.855469,181.348541 149.441925,143.311844 182.582275,124.387863 
M235.260666,228.908569 
	C213.433624,239.178360 192.722458,236.764297 173.281845,222.892044 
	C171.852356,224.900070 172.363831,226.612381 172.359024,228.207092 
	C172.314377,243.028885 172.532410,257.855103 172.217239,272.670319 
	C172.117813,277.343781 173.579620,279.432220 178.068222,280.740967 
	C201.534485,287.583160 224.909058,294.739502 248.324478,301.756653 
	C254.206284,303.519348 254.658539,303.188782 254.663513,297.144806 
	C254.684738,271.331329 254.686218,245.517838 254.637833,219.704468 
	C254.634933,218.162262 255.296844,216.377457 253.315262,214.686111 
	C248.396088,220.410446 242.532944,224.978989 235.260666,228.908569 
M275.789124,200.416306 
	C273.402802,201.602158 271.109406,203.058578 268.610596,203.916824 
	C263.606567,205.635529 262.148926,208.806564 262.204315,214.098419 
	C262.488525,241.255219 262.317841,268.416626 262.375000,295.576263 
	C262.378937,297.448547 261.592957,299.576019 263.604218,301.468475 
	C265.320526,300.624939 267.121155,299.812592 268.854401,298.875580 
	C276.702148,294.632996 276.758057,294.602295 274.266663,285.939850 
	C266.855469,260.171692 287.588684,233.935776 315.569275,236.507050 
	C322.173615,237.113953 327.893921,239.907379 334.373596,242.551712 
	C334.373596,218.794968 334.373596,195.652039 334.373596,171.670990 
	C314.655334,181.356247 295.562592,190.734253 275.789124,200.416306 
M288.997620,253.501190 
	C284.309967,258.413605 281.303375,264.095123 280.547668,270.848816 
	C283.822296,272.785187 289.633545,270.332672 289.651184,275.601105 
	C289.669098,280.936310 283.794403,278.294739 281.016022,280.029755 
	C281.304688,291.297485 291.195557,302.930847 303.012238,306.174561 
	C306.523010,307.138275 308.994354,307.052338 308.714233,302.388550 
	C308.582031,300.187439 309.459808,298.284668 311.861572,298.034393 
	C314.339050,297.776215 315.656738,299.673248 315.708557,301.748932 
	C315.862762,307.923492 319.321045,306.911194 323.038849,305.346161 
	C325.178650,304.445435 327.346039,303.485199 329.259613,302.194000 
	C337.159546,296.863312 342.127533,289.683990 343.409760,280.109558 
	C339.886932,278.512817 334.491455,280.775330 334.373932,275.755188 
	C334.247833,270.366058 339.942810,272.617981 342.847748,271.254547 
	C342.607727,259.633667 332.870850,248.105072 321.076355,244.924973 
	C317.639191,243.998230 316.067841,244.612411 315.923676,248.375336 
	C315.834198,250.711548 315.360382,253.278076 312.108276,253.175949 
	C308.835358,253.073181 308.579987,250.574646 308.704712,248.159866 
	C308.894073,244.494202 307.003204,243.891769 304.002747,244.631561 
	C298.361481,246.022476 293.589081,248.920364 288.997620,253.501190 
M273.077148,170.636307 
	C270.928345,172.016785 267.428070,172.380402 267.513489,175.666565 
	C267.699738,182.831879 265.881775,189.698349 264.284607,197.945419 
	C286.123352,187.272797 306.885895,177.126129 328.905823,166.364975 
	C319.976074,163.364349 312.433167,160.942154 304.979584,158.270630 
	C301.935089,157.179443 299.296295,157.294846 296.417023,158.811310 
	C288.920715,162.759537 281.312408,166.495010 273.077148,170.636307 
M287.806976,152.844849 
	C280.432617,148.742783 273.410187,149.029266 266.444977,154.048523 
	C262.227173,157.087952 265.464355,160.073227 266.234558,162.866028 
	C267.096893,165.992950 269.439545,164.191940 271.097290,163.388794 
	C276.189728,160.921570 281.242706,158.369110 286.252197,155.737793 
	C287.189606,155.245361 289.116730,155.209885 287.806976,152.844849 
M262.243591,147.577576 
	C263.250885,147.165543 264.529297,147.127365 264.868439,145.656998 
	C263.486145,144.271378 261.703400,143.353806 260.208801,144.796860 
	C259.031067,145.934036 260.132751,147.142776 262.243591,147.577576 
z"/>
<path fill="#000000" opacity="1.000000" stroke="none" 
	d="
M173.167053,351.155762 
	C177.244812,346.293365 182.847519,346.731934 185.217026,351.852203 
	C187.986023,357.835663 190.574799,363.902557 193.752899,371.089050 
	C196.543472,361.908142 202.608154,369.556030 206.936371,366.865540 
	C205.099548,364.842712 202.658096,364.951813 200.609024,364.259186 
	C196.795197,362.970001 194.052414,360.711853 194.218781,356.394043 
	C194.377274,352.280548 196.756363,349.682648 200.701797,348.487732 
	C204.639404,347.295197 208.548096,347.333527 212.483932,348.503510 
	C214.754364,349.178467 216.665344,349.931946 215.488403,352.966064 
	C214.567230,355.340820 213.573120,357.384949 210.462265,356.023224 
	C208.745178,355.271606 207.053726,355.194427 204.658508,355.899139 
	C207.134552,357.910400 209.690964,358.005737 211.912460,358.879730 
	C214.848358,360.034760 217.152039,361.663940 217.349136,365.267029 
	C217.555588,369.041138 216.039062,371.709869 212.726929,373.376556 
	C210.161942,374.667267 207.367996,375.650238 204.548187,375.145020 
	C199.142883,374.176605 193.764114,373.793579 188.298431,374.309662 
	C186.803360,374.450806 185.546860,374.039551 184.363068,372.728973 
	C181.148117,369.169678 176.901352,369.216827 173.508011,372.809326 
	C172.308975,374.078735 171.029694,374.341522 169.516708,374.342316 
	C161.688354,374.346375 153.858749,374.251465 146.032242,374.368622 
	C142.733612,374.417969 141.644669,372.936401 141.699265,369.839508 
	C141.802017,364.011749 141.791672,358.179169 141.676834,352.351624 
	C141.619919,349.464050 142.700882,347.944061 145.687729,347.960266 
	C150.350800,347.985565 155.014053,347.977264 159.677231,347.980530 
	C162.465637,347.982452 163.360352,349.479126 163.358704,352.125641 
	C163.357101,354.662506 162.232040,355.724579 159.845215,355.973358 
	C157.405121,356.227692 154.875061,355.489990 151.958786,356.764862 
	C154.164902,357.940460 156.114258,357.641968 157.973328,357.549011 
	C160.590683,357.418121 162.125900,358.239594 162.099594,361.152863 
	C162.074112,363.973083 160.545883,364.923309 157.988785,364.992065 
	C156.190536,365.040375 154.327637,364.660156 152.193573,365.747803 
	C155.886414,368.934814 162.307449,363.854706 164.642563,370.552948 
	C167.537491,363.950989 170.265457,357.729828 173.167053,351.155762 
z"/>
<path fill="#000000" opacity="1.000000" stroke="none" 
	d="
M266.792816,347.910492 
	C269.879578,348.266418 272.582764,348.329468 275.103271,349.040283 
	C279.415100,350.256287 281.075989,353.597198 279.648956,357.894714 
	C279.099426,359.549561 278.813446,360.776001 279.802917,362.497131 
	C283.067993,368.176605 280.768066,373.294128 274.298920,374.040558 
	C269.062469,374.644745 263.708466,374.244568 258.406525,374.260620 
	C256.176849,374.267395 255.698898,372.776947 255.698486,370.932007 
	C255.697052,364.466095 255.725754,357.999939 255.678223,351.534363 
	C255.659393,348.971649 256.990692,347.966339 259.364349,347.950989 
	C261.685242,347.935944 264.006165,347.922943 266.792816,347.910492 
M270.799805,365.169708 
	C268.778442,364.025055 266.921997,363.769897 265.157166,366.224487 
	C267.564972,367.965210 269.511780,368.957214 270.799805,365.169708 
z"/>
<path fill="#000000" opacity="1.000000" stroke="none" 
	d="
M297.066406,347.700348 
	C305.465820,348.243927 309.685303,351.169739 311.512665,357.412262 
	C313.140015,362.971497 311.263031,368.803284 306.792542,372.077789 
	C301.403320,376.025146 294.119293,376.203339 288.511871,372.524994 
	C283.864441,369.476440 281.654816,363.728638 282.955383,358.071472 
	C284.315125,352.156708 288.892212,348.687653 297.066406,347.700348 
M302.431061,360.753357 
	C301.658661,357.768433 299.981079,355.498169 296.698608,355.734833 
	C294.442719,355.897491 292.848999,357.663055 292.494263,359.996307 
	C292.029266,363.054474 292.864441,365.759399 296.178162,366.561218 
	C300.230896,367.541779 301.777740,364.907654 302.431061,360.753357 
z"/>
<path fill="#000000" opacity="1.000000" stroke="none" 
	d="
M314.383484,352.373291 
	C312.425903,349.553986 312.896637,348.293762 316.123199,347.875397 
	C320.638123,347.289917 323.810760,349.048981 325.941833,352.910889 
	C332.570007,347.226837 333.019165,347.088013 339.282501,348.824860 
	C339.034393,352.377045 336.317688,354.607147 334.421112,357.124542 
	C332.372711,359.843414 332.277832,361.937653 334.342804,364.668457 
	C336.390564,367.376465 338.972565,369.860229 339.997864,373.682159 
	C334.384338,375.097656 329.615662,375.139496 326.360413,368.837097 
	C322.992371,375.132141 318.106812,375.038940 312.601532,373.809814 
	C313.022644,370.439758 315.282745,368.296844 317.184418,366.174469 
	C320.277740,362.722198 320.659882,359.676727 317.250031,356.303101 
	C316.199799,355.264099 315.477264,353.893890 314.383484,352.373291 
z"/>
<path fill="#000000" opacity="1.000000" stroke="none" 
	d="
M242.978577,351.783203 
	C239.585312,358.339630 234.158142,363.640594 235.107727,371.591736 
	C235.404785,374.079010 233.207520,374.474670 231.286133,374.292572 
	C229.335938,374.107758 225.773682,375.276703 226.004700,372.331146 
	C226.660629,363.967834 221.168549,358.466553 217.754501,351.971497 
	C217.301529,351.109741 216.724396,350.227356 217.223236,349.165466 
	C223.039078,346.595551 224.100876,347.056824 230.476562,354.973114 
	C232.695053,354.368225 233.099945,352.180359 234.084961,350.583466 
	C236.224426,347.115051 239.441895,347.697876 242.520981,348.289642 
	C244.561996,348.681915 243.683609,350.236847 242.978577,351.783203 
z"/>
<path fill="#000000" opacity="1.000000" stroke="none" 
	d="
M307.909058,276.532074 
	C307.725189,271.927155 307.640747,267.767700 307.643097,263.608276 
	C307.644226,261.608551 308.277100,259.896973 310.643829,259.778046 
	C313.182892,259.650421 314.181580,261.217285 314.307556,263.525269 
	C314.361938,264.522003 314.463013,265.535278 314.349335,266.518677 
	C313.918091,270.249908 315.145294,272.160370 319.279816,271.889740 
	C321.884003,271.719238 324.538818,272.419983 324.309814,275.909149 
	C324.103912,279.046906 321.607544,279.532013 319.177643,279.254700 
	C315.415283,278.825348 311.061737,281.055298 307.909058,276.532074 
z"/>
</svg>