<?xml version="1.0"?>
<svg xmlns="http://www.w3.org/2000/svg" xmlns:xlink="http://www.w3.org/1999/xlink" xmlns:svgjs="http://svgjs.com/svgjs" version="1.1" width="512" height="512" x="0" y="0" viewBox="0 0 512 512" style="enable-background:new 0 0 512 512" xml:space="preserve" class=""><g>
<g xmlns="http://www.w3.org/2000/svg">
	<g>
		<g>
			<path style="" d="M508.059,174.525c-128.896-162.745-374.998-163.027-504.118,0     c-6.253,7.894-4.921,19.364,2.974,25.616s19.363,4.921,25.616-2.974c114.311-144.329,332.453-144.55,446.94,0     c6.256,7.901,17.725,9.222,25.616,2.974C512.981,193.887,514.312,182.419,508.059,174.525z" fill="#ee5445" data-original="#231f20" class=""/>
			<path style="" d="M87.372,240.465c-6.255,7.893-4.927,19.362,2.966,25.616c7.896,6.257,19.363,4.925,25.616-2.966     c71.667-90.439,208.291-90.605,280.09,0c6.256,7.893,17.724,9.221,25.616,2.966c7.893-6.255,9.222-17.723,2.966-25.616     C338.355,131.595,173.775,131.429,87.372,240.465z" fill="#ee5445" data-original="#231f20" class=""/>
			<path style="" d="M170.757,306.4c-6.25,7.897-4.916,19.364,2.981,25.615c7.897,6.25,19.365,4.916,25.615-2.981     c28.925-36.546,84.318-36.607,113.292,0c6.251,7.897,17.717,9.232,25.615,2.981c7.897-6.251,9.23-17.718,2.981-25.615     C297.724,251.418,214.345,251.33,170.757,306.4z" fill="#ee5445" data-original="#231f20" class=""/>
			<circle style="" cx="256.003" cy="413.695" r="45.945" fill="#ee5445" data-original="#231f20" class=""/>
		</g>
	</g>
</g>
<g xmlns="http://www.w3.org/2000/svg">
</g>
<g xmlns="http://www.w3.org/2000/svg">
</g>
<g xmlns="http://www.w3.org/2000/svg">
</g>
<g xmlns="http://www.w3.org/2000/svg">
</g>
<g xmlns="http://www.w3.org/2000/svg">
</g>
<g xmlns="http://www.w3.org/2000/svg">
</g>
<g xmlns="http://www.w3.org/2000/svg">
</g>
<g xmlns="http://www.w3.org/2000/svg">
</g>
<g xmlns="http://www.w3.org/2000/svg">
</g>
<g xmlns="http://www.w3.org/2000/svg">
</g>
<g xmlns="http://www.w3.org/2000/svg">
</g>
<g xmlns="http://www.w3.org/2000/svg">
</g>
<g xmlns="http://www.w3.org/2000/svg">
</g>
<g xmlns="http://www.w3.org/2000/svg">
</g>
<g xmlns="http://www.w3.org/2000/svg">
</g>
</g></svg>
