<?xml version="1.0"?>
<svg xmlns="http://www.w3.org/2000/svg" xmlns:xlink="http://www.w3.org/1999/xlink" xmlns:svgjs="http://svgjs.com/svgjs" version="1.1" width="512" height="512" x="0" y="0" viewBox="0 0 24 24" style="enable-background:new 0 0 512 512" xml:space="preserve" class=""><g><path xmlns="http://www.w3.org/2000/svg" d="m19.5 24h-15c-1.379 0-2.5-1.122-2.5-2.5v-19c0-1.378 1.121-2.5 2.5-2.5h15c1.379 0 2.5 1.122 2.5 2.5v19c0 1.378-1.121 2.5-2.5 2.5zm-15-23c-.827 0-1.5.673-1.5 1.5v19c0 .827.673 1.5 1.5 1.5h15c.827 0 1.5-.673 1.5-1.5v-19c0-.827-.673-1.5-1.5-1.5z" fill="#ee5445" data-original="#000000" style="" class=""/><path xmlns="http://www.w3.org/2000/svg" d="m18.5 20h-2c-.827 0-1.5-.673-1.5-1.5v-3c0-.827.673-1.5 1.5-1.5h2c.276 0 .5.224.5.5s-.224.5-.5.5h-2c-.275 0-.5.224-.5.5v3c0 .276.225.5.5.5h2c.276 0 .5.224.5.5s-.224.5-.5.5z" fill="#ee5445" data-original="#000000" style="" class=""/><path xmlns="http://www.w3.org/2000/svg" d="m10.5 20c-.276 0-.5-.224-.5-.5v-4c0-.827.673-1.5 1.5-1.5h2c.276 0 .5.224.5.5s-.224.5-.5.5h-2c-.275 0-.5.224-.5.5v4c0 .276-.224.5-.5.5z" fill="#ee5445" data-original="#000000" style="" class=""/><path xmlns="http://www.w3.org/2000/svg" d="m13.5 18h-3c-.276 0-.5-.224-.5-.5s.224-.5.5-.5h3c.276 0 .5.224.5.5s-.224.5-.5.5z" fill="#ee5445" data-original="#000000" style="" class=""/><path xmlns="http://www.w3.org/2000/svg" d="m8.5 20c-.173 0-.337-.089-.429-.243l-2.071-3.452v3.195c0 .276-.224.5-.5.5s-.5-.224-.5-.5v-5c0-.225.15-.422.366-.482.221-.061.447.033.563.225l2.071 3.452v-3.195c0-.276.224-.5.5-.5s.5.224.5.5v5c0 .225-.15.422-.366.482-.045.012-.09.018-.134.018z" fill="#ee5445" data-original="#000000" style="" class=""/><path xmlns="http://www.w3.org/2000/svg" d="m12 10.375c-.413 0-.75-.336-.75-.75s.337-.75.75-.75.75.336.75.75-.337.75-.75.75z" fill="#ee5445" data-original="#000000" style="" class=""/><path xmlns="http://www.w3.org/2000/svg" d="m14.12 8.005c-.128 0-.256-.049-.354-.146-.945-.946-2.588-.946-3.533 0-.195.195-.512.195-.707 0s-.195-.512 0-.707c1.324-1.324 3.623-1.324 4.947 0 .195.195.195.512 0 .707-.097.097-.225.146-.353.146z" fill="#ee5445" data-original="#000000" style="" class=""/><path xmlns="http://www.w3.org/2000/svg" d="m15.89 6.235c-.128 0-.256-.049-.354-.146-.943-.944-2.199-1.464-3.536-1.464s-2.593.52-3.536 1.463c-.195.195-.512.195-.707 0s-.195-.512 0-.707c1.132-1.132 2.639-1.756 4.243-1.756s3.111.624 4.243 1.756c.195.195.195.512 0 .707-.097.098-.225.147-.353.147z" fill="#ee5445" data-original="#000000" style="" class=""/></g></svg>
