<?xml version="1.0"?>
<svg xmlns="http://www.w3.org/2000/svg" xmlns:xlink="http://www.w3.org/1999/xlink" xmlns:svgjs="http://svgjs.com/svgjs" version="1.1" width="512" height="512" x="0" y="0" viewBox="0 0 512 512" style="enable-background:new 0 0 512 512" xml:space="preserve" class=""><g><g xmlns="http://www.w3.org/2000/svg"><path d="m507.607 60.394-56-56c-5.857-5.858-15.355-5.858-21.213 0l-39.369 39.369c-17.271-10.282-39.997-8.003-54.844 6.844l-285.574 285.573c-15.14 15.139-16.984 37.921-6.856 54.857l-39.357 39.357c-5.858 5.858-5.858 15.355 0 21.213l56 56c5.857 5.857 15.355 5.858 21.213 0l39.369-39.369c17.337 10.321 40.045 7.955 54.844-6.844l285.574-285.574c15.14-15.139 16.984-37.921 6.856-54.857l39.356-39.357c5.859-5.857 5.859-15.354.001-21.212zm-436.607 415.393-34.787-34.787 27.787-27.786 34.787 34.786zm369.181-321.18-285.574 285.573c-5.848 5.848-15.365 5.848-21.213 0-14.099-14.099-47.497-47.495-61.574-61.574-5.863-5.863-5.863-15.35 0-21.213l285.574-285.573c5.848-5.848 15.365-5.848 21.213 0 10.008 10.008-23.645-23.65 61.574 61.574 5.862 5.862 5.862 15.35 0 21.213zm7.819-55.82-34.787-34.787 27.787-27.787 34.787 34.787z" fill="#ee5445" data-original="#000000" style=""/><path d="m378.607 357.394c-5.857-5.857-15.355-5.857-21.213 0-5.858 5.858-5.858 15.355 0 21.213l32 32c2.929 2.929 6.767 4.393 10.606 4.393 13.244 0 20.083-16.13 10.606-25.607z" fill="#ee5445" data-original="#000000" style=""/><path d="m324.269 399.71c-2.835-7.785-11.443-11.799-19.227-8.965-7.784 2.833-11.798 11.441-8.965 19.226l15.479 42.526c2.218 6.091 7.97 9.874 14.097 9.874 10.353 0 17.666-10.321 14.095-20.135z" fill="#ee5445" data-original="#000000" style=""/><path d="m452.495 311.556-42.525-15.478c-7.78-2.833-16.393 1.18-19.226 8.965s1.181 16.392 8.966 19.226l42.525 15.478c7.799 2.839 16.398-1.197 19.226-8.965 2.833-7.785-1.18-16.392-8.966-19.226z" fill="#ee5445" data-original="#000000" style=""/><path d="m133.394 154.607c5.858 5.858 15.355 5.858 21.213 0s5.858-15.355 0-21.213l-32-32c-5.857-5.857-15.355-5.857-21.213 0-5.858 5.858-5.858 15.355 0 21.213z" fill="#ee5445" data-original="#000000" style=""/><path d="m187.732 112.291c2.825 7.76 11.417 11.807 19.227 8.965 7.784-2.833 11.798-11.441 8.965-19.226l-15.479-42.526c-2.834-7.785-11.443-11.798-19.227-8.965s-11.798 11.441-8.965 19.226z" fill="#ee5445" data-original="#000000" style=""/><path d="m59.505 200.444c45.827 16.68 44.024 16.387 47.654 16.387 6.126 0 11.88-3.783 14.097-9.874 2.833-7.785-1.181-16.392-8.966-19.226l-42.525-15.478c-7.78-2.833-16.392 1.18-19.226 8.965-2.833 7.785 1.181 16.393 8.966 19.226z" fill="#ee5445" data-original="#000000" style=""/></g></g></svg>
