<?xml version="1.0" encoding="utf-8"?>
<!-- Generator: Adobe Illustrator 24.0.0, SVG Export Plug-In . SVG Version: 6.00 Build 0)  -->
<svg version="1.1" id="Layer_1" xmlns="http://www.w3.org/2000/svg" xmlns:xlink="http://www.w3.org/1999/xlink" x="0px" y="0px"
	 viewBox="0 0 42.52 24.13" style="enable-background:new 0 0 42.52 24.13;" xml:space="preserve">
<style type="text/css">
	.st0{fill:#EF5F4E;}
	.st1{fill:#E95870;}
	.st2{font-family:'HelveticaNeue-Medium';}
	.st3{font-size:1.9051px;}
</style>
<g>
	<path class="st0" d="M8.01,15.4C7.84,15.73,7.6,16,7.29,16.22s-0.69,0.38-1.12,0.49c-0.44,0.11-0.92,0.16-1.45,0.16H0.21V7.38h4.4
		c0.97,0,1.74,0.22,2.29,0.66c0.55,0.44,0.83,1.04,0.83,1.79v0.03c0,0.27-0.03,0.51-0.1,0.72c-0.07,0.21-0.16,0.4-0.27,0.56
		c-0.11,0.17-0.24,0.31-0.39,0.44c-0.15,0.13-0.31,0.24-0.48,0.33c0.55,0.21,0.98,0.49,1.3,0.85c0.31,0.36,0.47,0.85,0.47,1.48v0.03
		C8.26,14.7,8.18,15.08,8.01,15.4z M5.67,10.19c0-0.32-0.12-0.56-0.35-0.73C5.08,9.29,4.74,9.21,4.3,9.21H2.24v2.01h1.93
		c0.46,0,0.83-0.08,1.1-0.24c0.27-0.16,0.41-0.41,0.41-0.77V10.19z M6.2,13.98c0-0.32-0.12-0.57-0.37-0.75
		c-0.24-0.19-0.64-0.28-1.18-0.28H2.24v2.09h2.48c0.46,0,0.82-0.08,1.08-0.25c0.26-0.17,0.39-0.43,0.39-0.78V13.98z"/>
	<path class="st0" d="M26.3,16.87l-2.13-3.25l-2.14,3.25h-2.37l3.31-4.83l-3.17-4.66h2.44l1.99,3.08l2.01-3.08h2.37l-3.17,4.64
		l3.31,4.85H26.3z"/>
	<rect x="30.94" y="7.38" class="st0" width="2.2" height="9.5"/>
	<polygon class="st0" points="42.31,15.01 37.23,15.01 37.23,13.02 42.31,13.02 42.31,11.16 37.23,11.16 37.23,9.24 42.31,9.24 
		42.31,7.38 35.17,7.38 35.17,16.87 42.31,16.87 	"/>
	<path class="st0" d="M11.63,5.32V2.47h19.3v2.29h2.2V0.27H9.43v6.45C10.07,6.13,10.81,5.65,11.63,5.32z"/>
	<path class="st0" d="M30.93,19.46v2.28h-19.3V18.9c-0.82-0.34-1.56-0.82-2.2-1.41v6.45h23.7v-4.48H30.93z"/>
	<path class="st0" d="M14.44,7.38c-2.62,0-4.74,2.12-4.74,4.74s2.12,4.74,4.74,4.74s4.74-2.12,4.74-4.74S17.06,7.38,14.44,7.38z
		 M14.44,14.83c-1.5,0-2.71-1.21-2.71-2.71c0-1.5,1.21-2.71,2.71-2.71c1.5,0,2.71,1.21,2.71,2.71
		C17.15,13.62,15.93,14.83,14.44,14.83z"/>
</g>
<text transform="matrix(1 0 0 1 35.1666 20.8183)" class="st1 st2 st3">TM</text>
</svg>
