<?xml version="1.0"?>
<svg xmlns="http://www.w3.org/2000/svg" xmlns:xlink="http://www.w3.org/1999/xlink" xmlns:svgjs="http://svgjs.com/svgjs" version="1.1" width="512" height="512" x="0" y="0" viewBox="0 0 512 512" style="enable-background:new 0 0 512 512" xml:space="preserve" class=""><g><g xmlns="http://www.w3.org/2000/svg"><path d="m135.593 167.805c-3.512-2.197-8.139-1.132-10.336 2.379l-28.065 44.848c-3.12 4.987.472 11.479 6.358 11.479h14.605l-20.983 33.916c-2.179 3.522-1.09 8.145 2.432 10.324 3.52 2.179 8.145 1.091 10.324-2.432l28.065-45.362c3.085-4.987-.507-11.446-6.378-11.446h-14.525l20.882-33.369c2.197-3.512 1.132-8.14-2.379-10.337z" fill="#ee5445" data-original="#000000" style="" class=""/><path d="m482.623 108.271h-79.184c-50.837 0-92.197 41.359-92.197 92.197v219.334c0 26.539-21.591 48.129-48.129 48.129h-75.368c-26.539 0-48.129-21.591-48.129-48.129v-76.126c9.626-5.902 16.062-16.521 16.062-28.616v-16.076c32.167-14.559 54.602-46.961 54.602-84.505v-65.436c10.385-5.171 17.541-15.894 17.541-28.262 0-17.4-14.156-31.556-31.556-31.556h-7.847v-20.5c0-4.142-3.358-7.5-7.5-7.5s-7.5 3.358-7.5 7.5v20.5h-15.07v-66.69c0-4.155 3.38-7.535 7.535-7.535s7.535 3.38 7.535 7.535v11.192c0 4.142 3.358 7.5 7.5 7.5s7.5-3.358 7.5-7.5v-11.192c0-12.426-10.109-22.535-22.535-22.535s-22.535 10.109-22.535 22.535v66.692h-51.533v-66.692c0-12.426-10.109-22.535-22.535-22.535s-22.534 10.109-22.534 22.535v66.692h-7.847c-17.4 0-31.556 14.156-31.556 31.556 0 12.368 7.156 23.091 17.541 28.262 0 71.071-.072 67.291.189 71.4.263 4.133 3.808 7.27 7.96 7.009 4.134-.263 7.272-3.827 7.009-7.96-.219-3.45-.159.52-.159-67.154h155.397v62.142c0 44.132-36.899 79.453-80.951 77.624-27.827-1.139-52.918-16.973-65.859-42.081-1.897-3.682-6.42-5.128-10.103-3.23-3.682 1.897-5.128 6.421-3.23 10.103 9.833 19.078 25.576 33.701 44.349 42.138v16.027c0 12.095 6.436 22.713 16.062 28.616v76.126c0 50.837 41.359 92.197 92.197 92.197h75.368c50.838 0 92.197-41.359 92.197-92.197v-219.336c0-26.539 21.59-48.129 48.129-48.129h79.184c12.15 0 22.034-9.884 22.034-22.034s-9.884-22.035-22.034-22.035zm-420.877-85.736c0-4.155 3.38-7.535 7.535-7.535s7.535 3.38 7.535 7.535v66.692h-15.07zm-25.931 114.505c-.125-.024-.251-.044-.376-.071-7.473-1.596-13.096-8.244-13.096-16.186 0-9.129 7.427-16.556 16.556-16.556h157.366c9.129 0 16.556 7.427 16.556 16.556 0 8.07-5.799 14.802-13.472 16.257-2.597.493-161.064.468-163.534 0zm58.671 167.237c15.449 3.945 31.453 3.783 46.192-.011v10.795c0 10.354-8.497 18.544-18.544 18.544-9.797 0-11.401.24-15.031-.989-7.324-2.481-12.616-9.405-12.616-17.555v-10.784zm388.137-166.938h-79.184c-34.81 0-63.129 28.32-63.129 63.129v219.334c0 42.566-34.63 77.197-77.197 77.197h-75.368c-42.567 0-77.197-34.63-77.197-77.197v-71.288c2.047.149 12.029.149 14.068 0v71.288c0 34.81 28.32 63.129 63.129 63.129h75.368c34.81 0 63.129-28.32 63.129-63.129v-219.333c0-42.567 34.63-77.197 77.197-77.197h79.184c3.879 0 7.034 3.156 7.034 7.034s-3.155 7.033-7.034 7.033z" fill="#ee5445" data-original="#000000" style="" class=""/></g></g></svg>
