<?xml version="1.0"?>
<svg xmlns="http://www.w3.org/2000/svg" xmlns:xlink="http://www.w3.org/1999/xlink" xmlns:svgjs="http://svgjs.com/svgjs" version="1.1" width="512" height="512" x="0" y="0" viewBox="0 0 301.617 301.617" style="enable-background:new 0 0 512 512" xml:space="preserve"><g>
<g xmlns="http://www.w3.org/2000/svg">
	<path d="M272.455,111.216H229.51c-1.231,6.214-3.847,12.173-7.836,17.318l-9.832,12.682h45.613v130.401H44.162V141.216H84.48   l-9.832-12.682c-3.988-5.145-6.604-11.104-7.836-17.318h-37.65c-8.284,0-15,6.716-15,15v160.401c0,8.284,6.716,15,15,15h243.293   c8.284,0,15-6.716,15-15V126.216C287.455,117.932,280.739,111.216,272.455,111.216z" fill="#ee5445" data-original="#000000" style=""/>
	<path d="M66.403,13.745c18.865,10.926,33.915,27.699,42.694,47.833c4.08,9.357,6.807,19.437,7.926,30h-9.564   c-4.396,0-8.408,2.502-10.342,6.449c-1.934,3.947-1.453,8.651,1.24,12.125l40.702,52.5c2.182,2.814,5.542,4.461,9.103,4.461   s6.921-1.647,9.102-4.461l40.702-52.5c2.693-3.474,3.174-8.178,1.24-12.125c-1.934-3.947-5.947-6.449-10.342-6.449h-11.522   c-1.119-10.562-3.844-20.643-7.923-30C153.618,25.337,117.481,0,75.421,0c-1.938,0-3.864,0.054-5.776,0.16   c-3.217,0.179-5.935,2.45-6.682,5.584C62.214,8.878,63.614,12.13,66.403,13.745z" fill="#ee5445" data-original="#000000" style=""/>
	<circle cx="212.455" cy="226.374" r="15" fill="#ee5445" data-original="#000000" style=""/>
	<circle cx="154.304" cy="226.374" r="15" fill="#ee5445" data-original="#000000" style=""/>
</g>
<g xmlns="http://www.w3.org/2000/svg">
</g>
<g xmlns="http://www.w3.org/2000/svg">
</g>
<g xmlns="http://www.w3.org/2000/svg">
</g>
<g xmlns="http://www.w3.org/2000/svg">
</g>
<g xmlns="http://www.w3.org/2000/svg">
</g>
<g xmlns="http://www.w3.org/2000/svg">
</g>
<g xmlns="http://www.w3.org/2000/svg">
</g>
<g xmlns="http://www.w3.org/2000/svg">
</g>
<g xmlns="http://www.w3.org/2000/svg">
</g>
<g xmlns="http://www.w3.org/2000/svg">
</g>
<g xmlns="http://www.w3.org/2000/svg">
</g>
<g xmlns="http://www.w3.org/2000/svg">
</g>
<g xmlns="http://www.w3.org/2000/svg">
</g>
<g xmlns="http://www.w3.org/2000/svg">
</g>
<g xmlns="http://www.w3.org/2000/svg">
</g>
</g></svg>
